<?xml version="1.0" ?><!DOCTYPE svg  PUBLIC '-//W3C//DTD SVG 1.1//EN'  'http://www.w3.org/Graphics/SVG/1.1/DTD/svg11.dtd'><svg height="512px" id="形状_1_1_" style="enable-background:new 0 0 512 512;" version="1.1" viewBox="0 0 512 512" width="512px" xml:space="preserve" xmlns="http://www.w3.org/2000/svg" xmlns:xlink="http://www.w3.org/1999/xlink"><g id="形状_1"><g><path d="M66.453,210.267c-22.304,0-40.452,18.145-40.452,40.448    c0,22.303,18.147,40.449,40.452,40.449c2.91,0,5.745-0.325,8.482-0.91v8.933c0,1.951,1.597,3.547,3.546,3.547h3.545    c1.95,0,3.546-1.596,3.546-3.547v-12.839c12.686-6.838,21.332-20.242,21.332-35.633    C106.903,228.411,88.757,210.267,66.453,210.267z M85.572,273.563V258.63l-10.637,3.459v17.191    c-2.691,0.805-5.533,1.25-8.482,1.25c-16.439,0-29.813-13.374-29.813-29.815c0-16.438,13.374-29.811,29.813-29.811    s29.813,13.372,29.813,29.811C96.266,259.878,92.101,268.086,85.572,273.563z M485.701,263.874l-20.252-45.983    c-0.785-1.787-2.176-1.835-3.091-0.109l-1.821,3.448c-0.915,1.725-2.4,4.547-3.315,6.271l-10.664,20.168    c-0.91,1.724-2.401,1.724-3.316,0l-15.39-29.108c-0.911-1.721-2.396-1.721-3.302,0.008l-15.205,29.048    c-0.905,1.728-2.386,1.731-3.302,0.007l-15.34-29.018c-0.915-1.72-2.406-1.72-3.321,0l-15.355,29.063    c-0.915,1.724-2.406,1.724-3.321,0l-15.801-29.887c-0.915-1.726-2.301-1.678-3.086,0.109l-20.257,45.983    c-0.785,1.786,0.035,3.892,1.815,4.677l3.246,1.426c1.786,0.785,3.892-0.03,4.677-1.815l11.389-25.864    c0.785-1.783,2.176-1.836,3.092-0.111l14.925,28.241c0.915,1.721,2.406,1.721,3.321,0l15.355-29.065    c0.915-1.724,2.406-1.724,3.321,0l15.385,29.11c0.916,1.721,2.401,1.721,3.307-0.01l15.205-29.048    c0.905-1.729,2.386-1.731,3.302-0.006l15.34,29.019c0.915,1.721,2.406,1.721,3.316,0l14.93-28.237    c0.916-1.725,2.302-1.672,3.087,0.111l11.389,25.86c0.785,1.785,2.891,2.601,4.672,1.815l3.251-1.426    C485.666,267.766,486.486,265.66,485.701,263.874z M183.416,217.795c-0.844-1.76-2.223-1.76-3.065,0l-1.732,3.608    c-0.843,1.758-2.221,4.636-3.066,6.391l-17.006,35.471c-0.844,1.76-0.095,3.886,1.664,4.731l3.196,1.53    c1.759,0.846,3.886,0.09,4.732-1.665l4.681-9.764h18.125l4.68,9.764c0.846,1.755,2.974,2.511,4.733,1.665l3.196-1.53    c1.758-0.846,2.508-2.972,1.662-4.731L183.416,217.795z M175.184,249.746l5.166-13.07c0.844-1.755,2.223-1.755,3.067,0    l4.913,13.07H175.184z M224.938,258.878c-1.949,0-3.545-1.599-3.545-3.546v-31.014c0-1.949-1.598-3.547-3.546-3.547h-3.546    c-1.949,0-3.546,1.598-3.546,3.547v41.652c0,1.945,1.597,3.546,3.546,3.546h31.906l-6.922-10.639H224.938z M300.136,217.791    c-14.694,0-26.649,11.953-26.649,26.649c0,14.697,11.955,26.646,26.649,26.646c14.695,0,26.649-11.949,26.649-26.646    C326.785,229.744,314.831,217.791,300.136,217.791z M300.136,260.453c-8.827,0-16.011-7.183-16.011-16.013    c0-8.831,7.184-16.012,16.011-16.012c8.828,0,16.011,7.181,16.011,16.012C316.146,253.271,308.964,260.453,300.136,260.453z     M271.711,258.973l-0.37-0.005c-16.827,0-23.074-4.946-23.074-14.586c0-9.641,6.247-14.586,23.074-14.586l0.37-0.007    c1.956,0,3.547-1.404,3.547-3.355v-3.546c0-1.949-1.591-3.39-3.547-3.39l-0.37-0.007c-31.032,0-33.378,15.617-33.378,24.891    c0,9.272,2.346,24.89,33.378,24.89l0.37-0.005c1.956,0,3.547-1.44,3.547-3.392v-3.546    C275.258,260.378,273.667,258.973,271.711,258.973z M149.757,220.498h-3.546c-1.95,0-3.546,1.598-3.546,3.546v31.288    c0,1.947-1.596,3.546-3.546,3.546h-8.558c-1.95,0-3.545-1.599-3.545-3.546v-31.288c0-1.948-1.597-3.546-3.546-3.546h-3.546    c-1.95,0-3.546,1.598-3.546,3.546v41.927c0,1.945,1.597,3.546,3.546,3.546h29.834c1.948,0,3.546-1.601,3.546-3.546v-41.927    C153.303,222.096,151.705,220.498,149.757,220.498z" style="fill-rule:evenodd;clip-rule:evenodd;fill:#0851A0;"/></g></g></svg>